<svg width="20" height="20" viewBox="0 0 20 20" fill="none" xmlns="http://www.w3.org/2000/svg">
<g id="Icons">
<path id="Vector" d="M8.61721 10.6282C8.90513 11.0135 9.27247 11.3324 9.6943 11.5631C10.1161 11.7938 10.5826 11.9309 11.0621 11.9653C11.5415 11.9997 12.0227 11.9304 12.4731 11.7623C12.9235 11.5941 13.3325 11.3309 13.6723 10.9906L15.6836 8.97726C16.2942 8.34438 16.6321 7.49674 16.6245 6.61691C16.6168 5.73708 16.2643 4.89545 15.6428 4.27329C15.0212 3.65113 14.1805 3.29822 13.3015 3.29058C12.4226 3.28293 11.5758 3.62116 10.9436 4.23241L9.79047 5.38003M11.2986 9.28601C11.0107 8.9007 10.6434 8.58188 10.2215 8.35118C9.79971 8.12048 9.33324 7.98329 8.85378 7.94891C8.37433 7.91454 7.89309 7.98379 7.44272 8.15196C6.99235 8.32014 6.58338 8.5833 6.24355 8.92361L4.23225 10.937C3.62162 11.5699 3.28374 12.4175 3.29138 13.2973C3.29902 14.1772 3.65156 15.0188 4.27308 15.6409C4.8946 16.2631 5.73537 16.616 6.6143 16.6237C7.49322 16.6313 8.33999 16.2931 8.97222 15.6818L10.1187 14.5342" stroke="#CFCFCF" stroke-width="1.5" stroke-linecap="round" stroke-linejoin="round"/>
</g>
</svg>
