<svg width="16" height="16" viewBox="0 0 16 16" fill="none" xmlns="http://www.w3.org/2000/svg">
<g id="Icons">
<path id="Vector" d="M13.3333 4.66667H2.66668C1.9303 4.66667 1.33334 5.26363 1.33334 6.00001V12.6667C1.33334 13.4031 1.9303 14 2.66668 14H13.3333C14.0697 14 14.6667 13.4031 14.6667 12.6667V6.00001C14.6667 5.26363 14.0697 4.66667 13.3333 4.66667Z" stroke="#B8B8B8" stroke-width="1.33" stroke-linecap="round" stroke-linejoin="round"/>
<path id="Vector_2" d="M10.6667 14V3.33333C10.6667 2.97971 10.5262 2.64057 10.2762 2.39052C10.0261 2.14048 9.68697 2 9.33334 2H6.66668C6.31305 2 5.97392 2.14048 5.72387 2.39052C5.47382 2.64057 5.33334 2.97971 5.33334 3.33333V14" stroke="#B8B8B8" stroke-width="1.33" stroke-linecap="round" stroke-linejoin="round"/>
</g>
</svg>
