<svg width="18" height="18" viewBox="0 0 18 18" fill="none" xmlns="http://www.w3.org/2000/svg">
<g id="Icons">
<g id="Vector">
<path d="M8.75 9.49999C9.16421 9.49999 9.5 9.16421 9.5 8.74999C9.5 8.33578 9.16421 7.99999 8.75 7.99999C8.33579 7.99999 8 8.33578 8 8.74999C8 9.16421 8.33579 9.49999 8.75 9.49999Z" stroke="#888888" stroke-width="1.5" stroke-linecap="round" stroke-linejoin="round"/>
<path d="M8.75 4.5C9.16422 4.5 9.5 4.16421 9.5 3.75C9.5 3.33579 9.16422 3 8.75 3C8.33579 3 8 3.33579 8 3.75C8 4.16421 8.33579 4.5 8.75 4.5Z" stroke="#888888" stroke-width="1.5" stroke-linecap="round" stroke-linejoin="round"/>
<path d="M8.75 15C9.16422 15 9.5 14.6642 9.5 14.25C9.5 13.8358 9.16422 13.5 8.75 13.5C8.33579 13.5 8 13.8358 8 14.25C8 14.6642 8.33579 15 8.75 15Z" stroke="#888888" stroke-width="1.5" stroke-linecap="round" stroke-linejoin="round"/>
</g>
</g>
</svg>
