<svg width="28" height="28" viewBox="0 0 28 28" fill="none" xmlns="http://www.w3.org/2000/svg">
<g id="Icons">
<path id="Vector" d="M21.6741 16.8778C22.5037 18.4333 23.3333 19.0556 23.3333 19.0556H4.66666C4.66666 19.0556 7.77777 16.9815 7.77777 9.72222C7.77777 6.3 10.5778 3.5 14 3.5C14.7259 3.5 15.3481 3.6037 15.9704 3.81111M12.2366 23.2037C12.4102 23.5194 12.6654 23.7827 12.9755 23.9661C13.2856 24.1495 13.6393 24.2462 13.9996 24.2462C14.3599 24.2462 14.7136 24.1495 15.0237 23.9661C15.3338 23.7827 15.589 23.5194 15.7625 23.2037" stroke="white" stroke-width="2.1" stroke-linecap="round" stroke-linejoin="round"/>
<path id="Vector - Notification" d="M20.2223 12.8334C21.9405 12.8334 23.3334 11.4405 23.3334 9.72226C23.3334 8.00404 21.9405 6.61115 20.2223 6.61115C18.5041 6.61115 17.1112 8.00404 17.1112 9.72226C17.1112 11.4405 18.5041 12.8334 20.2223 12.8334Z" fill="#DD403C" stroke="#DD403C" stroke-width="2.07407" stroke-linecap="round" stroke-linejoin="round"/>
</g>
</svg>
