<svg width="24" height="24" viewBox="0 0 24 24" fill="none" xmlns="http://www.w3.org/2000/svg">
<g id="Icon=Science">
<path id="Vector" d="M6 18H14" stroke="white" stroke-width="1.33" stroke-linecap="round" stroke-linejoin="round"/>
<path id="Vector_2" d="M3 22H21" stroke="white" stroke-width="1.33" stroke-linecap="round" stroke-linejoin="round"/>
<path id="Vector_3" d="M13.999 22C15.8555 22 17.636 21.2625 18.9488 19.9497C20.2615 18.637 20.999 16.8565 20.999 15C20.999 13.1435 20.2615 11.363 18.9488 10.0502C17.636 8.73747 15.8555 7.99997 13.999 7.99997H12.999" stroke="white" stroke-width="1.33" stroke-linecap="round" stroke-linejoin="round"/>
<path id="Vector_4" d="M9 14H11" stroke="white" stroke-width="1.33" stroke-linecap="round" stroke-linejoin="round"/>
<path id="Vector_5" d="M8.99902 12C8.46859 12 7.95988 11.7893 7.58481 11.4142C7.20974 11.0391 6.99902 10.5304 6.99902 10V6H12.999V10C12.999 10.5304 12.7883 11.0391 12.4132 11.4142C12.0382 11.7893 11.5295 12 10.999 12H8.99902Z" stroke="white" stroke-width="1.33" stroke-linecap="round" stroke-linejoin="round"/>
<path id="Vector_6" d="M11.9995 6V3C11.9995 2.73478 11.8942 2.48043 11.7066 2.29289C11.5191 2.10536 11.2647 2 10.9995 2H8.99951C8.7343 2 8.47994 2.10536 8.29241 2.29289C8.10487 2.48043 7.99951 2.73478 7.99951 3V6" stroke="white" stroke-width="1.33" stroke-linecap="round" stroke-linejoin="round"/>
</g>
</svg>
