<svg width="24" height="24" viewBox="0 0 24 24" fill="none" xmlns="http://www.w3.org/2000/svg">
<g id="Icon=Sports">
<path id="Vector" d="M6.00098 9.00003H4.50098C3.83794 9.00003 3.20205 8.73664 2.73321 8.2678C2.26437 7.79896 2.00098 7.16307 2.00098 6.50003C2.00098 5.83699 2.26437 5.2011 2.73321 4.73226C3.20205 4.26342 3.83794 4.00003 4.50098 4.00003H6.00098" stroke="white" stroke-width="1.33" stroke-linecap="round" stroke-linejoin="round"/>
<path id="Vector_2" d="M18 9.00003H19.5C20.163 9.00003 20.7989 8.73664 21.2678 8.2678C21.7366 7.79896 22 7.16307 22 6.50003C22 5.83699 21.7366 5.2011 21.2678 4.73226C20.7989 4.26342 20.163 4.00003 19.5 4.00003H18" stroke="white" stroke-width="1.33" stroke-linecap="round" stroke-linejoin="round"/>
<path id="Vector_3" d="M4.00049 22H20.0005" stroke="white" stroke-width="1.33" stroke-linecap="round" stroke-linejoin="round"/>
<path id="Vector_4" d="M10.0005 14.66V17C10.0005 17.55 9.53049 17.98 9.03049 18.21C7.85049 18.75 7.00049 20.24 7.00049 22" stroke="white" stroke-width="1.33" stroke-linecap="round" stroke-linejoin="round"/>
<path id="Vector_5" d="M14.001 14.66V17C14.001 17.55 14.471 17.98 14.971 18.21C16.151 18.75 17.001 20.24 17.001 22" stroke="white" stroke-width="1.33" stroke-linecap="round" stroke-linejoin="round"/>
<path id="Vector_6" d="M18 1.99997H6V8.99997C6 10.5913 6.63214 12.1174 7.75736 13.2426C8.88258 14.3678 10.4087 15 12 15C13.5913 15 15.1174 14.3678 16.2426 13.2426C17.3679 12.1174 18 10.5913 18 8.99997V1.99997Z" stroke="white" stroke-width="1.33" stroke-linecap="round" stroke-linejoin="round"/>
</g>
</svg>
