<svg width="24" height="24" viewBox="0 0 24 24" fill="none" xmlns="http://www.w3.org/2000/svg">
<g id="Icons">
<path id="Vector" d="M20.1303 18C20.0299 17.712 19.9627 17.4133 19.9303 17.11C19.2603 17.81 18.4503 18.16 17.5203 18.16C16.6903 18.16 16.0003 17.92 15.4703 17.45C14.9403 17 14.6703 16.39 14.6703 15.66C14.6703 14.78 15.0003 14.1 15.6703 13.61C16.3403 13.12 17.2803 12.88 18.5003 12.88H19.9003V12.24C19.9003 11.75 19.7503 11.36 19.4503 11.07C19.1503 10.78 18.7003 10.64 18.1203 10.64C17.6003 10.64 17.1703 10.76 16.8203 11C16.4703 11.25 16.3003 11.54 16.3003 11.89H14.8403C14.8403 11.46 14.9903 11.05 15.2903 10.65C15.5703 10.25 16.0003 9.94 16.5103 9.71C17.0203 9.5 17.5703 9.36 18.2003 9.36C19.1803 9.36 19.9403 9.6 20.4903 10.09C21.0403 10.58 21.3303 11.25 21.3503 12.11V16C21.3503 16.8 21.4503 17.42 21.6503 17.88V18H20.1303ZM17.7303 16.88C18.1803 16.88 18.6103 16.77 19.0203 16.56C19.4203 16.35 19.7203 16.07 19.9003 15.73V14.16H18.7703C17.0003 14.16 16.1103 14.63 16.1103 15.57C16.1103 16 16.2603 16.3 16.5703 16.53C16.8703 16.76 17.2503 16.88 17.7303 16.88ZM5.53032 13.71H9.60032L7.57032 8.29L5.53032 13.71ZM6.71032 6H8.43032L13.1403 18H11.2103L10.2403 15.43H4.89032L3.93032 18H2.00032L6.71032 6Z" fill="white"/>
</g>
</svg>
